<?xml version="1.0" encoding="utf-8"?>
<!-- Generator: Adobe Illustrator 21.1.0, SVG Export Plug-In . SVG Version: 6.00 Build 0)  -->
<svg version="1.1" id="Layer_1" xmlns="http://www.w3.org/2000/svg" xmlns:xlink="http://www.w3.org/1999/xlink" x="0px" y="0px"
	 viewBox="0 0 260 260" style="enable-background:new 0 0 260 260;" xml:space="preserve">
<style type="text/css">
	.st0{fill:#595858;}
</style>
<g>
	<path class="st0" d="M158.7,165.7c0,32-25.9,57.9-58,57.9c-32,0-57.9-25.9-57.9-57.9c0-32,25.9-58,57.9-58
		C132.8,107.7,158.7,133.7,158.7,165.7z"/>
	<path class="st0" d="M160.2,66.1c0,16.4-13.3,29.7-29.8,29.7c-16.4,0-29.8-13.3-29.8-29.7c0-16.4,13.4-29.8,29.8-29.8
		C146.9,36.4,160.2,49.7,160.2,66.1z"/>
	<path class="st0" d="M99,81.9c0,16.4-13.3,29.7-29.8,29.7c-16.4,0-29.7-13.3-29.7-29.7c0-16.4,13.3-29.8,29.7-29.8
		C85.7,52.2,99,65.5,99,81.9z"/>
	<path class="st0" d="M220.4,166c0,16.4-13.3,29.7-29.7,29.7c-16.4,0-29.8-13.3-29.8-29.7c0-16.4,13.3-29.8,29.8-29.8
		C207.1,136.2,220.4,149.6,220.4,166z"/>
	<path class="st0" d="M212.6,103.4c0,16.4-13.3,29.7-29.7,29.7c-16.4,0-29.8-13.3-29.8-29.7c0-16.4,13.3-29.8,29.8-29.8
		C199.2,73.6,212.6,87,212.6,103.4z"/>
</g>
</svg>
