<?xml version="1.0" encoding="utf-8"?>
<!-- Generator: Adobe Illustrator 21.1.0, SVG Export Plug-In . SVG Version: 6.00 Build 0)  -->
<svg version="1.1" id="Layer_1" xmlns="http://www.w3.org/2000/svg" xmlns:xlink="http://www.w3.org/1999/xlink" x="0px" y="0px"
	 viewBox="0 0 260 260" style="enable-background:new 0 0 260 260;" xml:space="preserve">
<style type="text/css">
	.st0{fill:#595858;}
</style>
<path class="st0" d="M222.5,56.4c-6.3-9.9-21.3-15.9-37-8.5c-18.7,8.7-18,32.3-13.2,49.3c4.8,17,24.8,42,28.1,58.7
	c2.3,11.5-5.1,28.8-18.5,40.4c0-6.1,1.1-19.4-3.2-42.9c-5.6-30.2-16.9-43.8-30.2-51.8c-13.3-8-26-5.5-35.3-7.9
	c-9.3-2.4-9.1-19.1-14.6-31.6C93.3,50.2,87,46.1,82,42.3c-5-3.8-6.9-5.4-9.2-7.3c-2.3-1.9-8-6-9-5.9c-1,0.1-1,2-1.5,2.3
	c-0.5,0.3-2.3-2.1-3.2-2.8c-0.9-0.7-2.5-1.9-3.1-0.7c-0.5,1.2,3.6,10.4,3,11.5c-0.6,1.1-1.3,1.1-5.5,2.3
	c-4.2,1.2-10.3,7.9-11.9,10.1c-1.6,2.2-3.1,9.1-4,10.6c-0.9,1.5-2.9,3.6-3.7,4.5c-0.8,0.8-1.5,2.3-1.6,3.9c-0.1,1.6,0.7,2.7,1.4,3.2
	c0.7,0.5,0.1,1.9,0.7,3.1c0.7,1.2,1.6,1.9,2.2,2.3c0.6,0.4-0.4,1.5,1.7,3.9c2.1,2.4,11.4,2.8,13.9,5.4c2.5,2.6,2,8.9,1.9,12.4
	c-0.1,3.5-4.5,11.1-4.9,17.7c-0.4,6.6,7.9,24.8,12.5,29.7c4.6,4.9,11.4,20.1,11.3,23.4c-0.1,3.4-1.9,10.8-2.9,14.8
	c-1,4-1.8,14.7-2.7,15.6c-0.9,0.9-6.4,1.8-8.1,3.3c-1.8,1.5-2.1,4.5-0.2,7.7c1.9,3.3,5.6,2.8,5.6,2.8s-1.8,1.3-2.7,3.3
	c-0.9,1.9-0.4,5.4,1.6,6.4c2.1,1,12.2,1.8,15.3,1.5c3.1-0.3,4.6-1.2,7-3.7c2.4-2.5,2.8-8.5,3.4-9.1c0.6-0.6,4.5,1.2,7.9,1.3
	c3.4,0.1,12.2,0.6,12.2,0.6l1.8,1.5c0,0-4.3,2.7-5.2,6.6c-0.9,3.9,0.9,6.5,4.7,7.8c3.8,1.4,11.3-0.4,13.7-1.4
	c2.4-1,4.8,0.6,10.5,0.6c5.8,0,18.9-2.4,27.4-2.8c8.5-0.4,6-1.4,7.7-3c1.8-1.6,3.2-1,8.3-5.4c1.3-1.1,2.3-2.7,2.9-4.6
	c1.6-0.7,3.2-1.5,4.8-2.3c21.6-11.4,48.4-46.4,8.9-101c-11-15.1-14.2-35-9.8-44.4c4.5-9.4,16.9-11.9,25.5-4.8s5.4,16.1,2.6,18.6
	c-2.8,2.5-15.8,3.9-10.9,13.4c2.5,4.8,14.1,1.8,20.5-7.3C229.6,78.7,228.9,66.3,222.5,56.4z"/>
</svg>
