<?xml version="1.0" encoding="utf-8"?>
<!-- Generator: Adobe Illustrator 21.1.0, SVG Export Plug-In . SVG Version: 6.00 Build 0)  -->
<svg version="1.1" id="Layer_1" xmlns="http://www.w3.org/2000/svg" xmlns:xlink="http://www.w3.org/1999/xlink" x="0px" y="0px"
	 viewBox="0 0 260 260" style="enable-background:new 0 0 260 260;" xml:space="preserve">
<style type="text/css">
	.st0{fill-rule:evenodd;clip-rule:evenodd;fill:#595858;}
</style>
<path class="st0" d="M218.1,202.8c-0.2,0.5-0.3,1.2-0.3,1.7c0,0.4,0.4,1.4,0.5,1.7c0.4,2.2-0.8,2.9,1,4.2c0.9,0.6,1.9,1,3,1.3
	c1.8,0.4,3.8,0.4,5.5,0.2c3-0.3,5.5-0.3,6.9-2.9c0.4-0.7,0.5-1.8,0.5-2.2c0-0.4-0.4-1.6-1-2.3c-0.3-0.3-0.6-1.3-0.8-2.1
	c-0.5-2.4-4.5-10.5-5.7-12.4c-1.2-1.7-2.7-12-3.5-14.4c-0.9-3.1,0.8-3.4-2-7.1c-0.4-0.5-1-0.7-1.6-1.5c-0.6-0.8-0.9-4.6-0.9-4.6
	c0-7.6-2.2-13.6-4.5-20.6c8.7,3.7,16.1,3.2,21.7-0.3c5.1-3.1,8.9-8.6,12.6-14.5c0.2-0.2,1.7-3.7,1.6-4c-0.2-2.2-8.5,5.2-9,5.7
	c-2.2,2.4-4.3,4.9-6.5,6.2c-5,3.1-6.9,2.7-12.4,1.7c-19.7-3.3-10.7-19.2-45.9-21.7c-14.1-1-28.6,0.1-42.8,0.7c-11,0.5-16,0.5-21-1.3
	c-4.1-1.5-8.1-4.2-15.4-8.9c-1.2-0.8,0.3-0.9,0.4-1.4c0.1-0.6,4.5-2.1,5.5-4.6c1.7-4.4-2.6-16.8-5.8-20.8c0-7.2,0.4-12.5-4.9-17.6
	c-3.2-3.1-4.9-7.9-6.9-11.9c-2.3-4.6-11-9.4-15.6-11c-3.4-1.1-7-1.7-12.5-2.4c-3.6-0.5-4.5,0.9-6,0.9c-1.6,0-3.3-0.5-5-0.2
	c-1.3,0.2-2.8,0.9-3.4,2.5c-0.1,0.4-0.4,0.8-0.9,1.1c-1.5,0.8-2.4,0.3-4.3,0.2c-1.9-0.1-5.4,0.5-6.7,0.4c-4.5-0.4-8.8-0.8-13.3-0.9
	c-5,0-12,0.6-9.3,7.6c0.4,1.1,0.9,2.2,1.3,3.3c0.6,0.9,1.2,1.8,1.7,2.7c0.4,1.2,0.9,2.4,1.3,3.7c2.6,4.6,6.9,8,11.7,10.2
	c3.9,2.3,5.7,3.2,10.2,4.1c0.4,0.1,1.9,0,2.6,0.4c0.8,0.5,1.6,0.9,2.3,1.4c2.6,1.7,2.7,2.8,3.9,5.3c-0.8,2-14,18.4-9.3,26.8
	c3.2,5.7,8.9,4.3,13.8,1.8c0.4,17.2-4.2,30.7-4.2,44.4c0,4.9,4.2,10.2,7,14.2c0.9,2.2,2,5.6,2.4,7.9c0.3,1.6,5.7,12.4,6.9,15.6
	c0.5,1.3,2.6,7.7,2.7,9c0.3,3.2,0.4,8.6-2.5,10.7c-1.4,1.1-3.9,2.3-6,3.4c-1.6,0.8-3,1.6-3.7,2.2c-0.5,0.4-2.4,1.9-2.6,2.1
	c-0.3,0.2-1.7,0.5-1.7,1.1c-0.1,0.6-0.5,1.2,0.3,1.5c0.9,0.3,1.4,0.4,1.7,0.5c0.3,0.2,1.1,0.7,1.1,0.7s-0.4,1.2,1.5,1.6
	c2.5,0.4,9.3,0.3,11.9,0.2c3.1-0.1,6.2-0.4,7.5-1c3.1-1.3,2.8-2,3.6-5.2c0.2-0.3,0.3-0.6,0.5-1c0.6,0.7,0.3,1.8,1.2,1.9
	c2.8,0.4,0.6-7.6,0.8-8.3c0.1-0.5-0.2-1.1,0-1.6c0.2-0.5,0.2-0.6,0.4-1.1c0.2-0.5,0.5-0.9,0.4-1.5c-0.1-0.6,0.2-0.8-0.4-1.9
	c-0.6-1.1-1.1-1.5-1-2.2c0.2-2.1,0.4-3.5,0.7-5.7c0.7-5.8,4.9-3.3,9.5-2.1c0.2,0.1,0.4,0.1,0.6,0.2c2.2,0.6,2.1,1,2.8,3.1
	c0.3,0.8,0.5,1.6,0.5,2.2c0.2,2.3,0.5,4.7,0.5,6.9c0,0.4-0.2,2.2-0.2,2.4c0,0.3-0.5,1.9-0.5,1.9c-1.1,2-1.3,2.1-2.9,3.7
	c-0.7,0.7-1.4,1.5-2.1,2.2c-0.3,0.3-0.9,0.6-1.4,0.9c-1.1,0.6-1,1.1-1.8,2.1c-0.3,1.3,0,1.4,1,1.9c0.4,0.2,0.7,0.7,0.9,1
	c0.2,0.3,0.5,0.9,0.8,1c0.3,0.2,0.4,0.8,1.2,0.8c0.8,0.1,1-0.1,1.9,0.2c0.9,0.2,0.6,0.3,1.5,0.5c1.2,0.3,3.6,0.8,4.7,0.4
	c1.3-0.4,0.9-0.6,2.1-0.4c1.2,0.2,1.3,0.4,2.1,0.5c0.8,0.1,0.6,0.5,2.3,0.2c1.7-0.4,1.3,0.3,2.3-0.5c1.7-1.6,1.2-1.7,2.1-3.4
	c0.6-1.1,1.1-2.3,1.1-3.6c0-2.2-0.5-4.4-0.5-6.6c-0.2-1.6,0.1-2.5,0.5-3.2c2-3.9-1.1-7.3,2.3-13.2c0.3-0.8,0.5-1.7,0.8-2.5
	c8.9-2.4,15.3-8.3,23.7-11.7c6.8-2.7,12.5-4.9,19.8-6.5c4.7-1,9.1-1.6,10.6-0.3c1.4,1.2,2.5,3.2,3.9,4.5c0,0,1.3,1.9,1.3,3
	c0,2.4-3.8,13.6-4.8,16c-1.2,1-2.4,2-3.7,3c0,0-1.8,0.7-2.2,0.9c-1.7,0.6-2.2,1.7-3.2,3.1c-0.6,0.9-1.2,1.8-1.3,2.3
	c-0.3,1-0.1,1.9,1.6,3c0.8,0.6,2.1,1,3.1,0.8c0.9-0.2,1.5-0.5,2.1-0.3c1,0.3,2.1,0.7,3.1,0.4c1-0.3,1.4-0.5,1.7-0.4
	c3.1,0.4,3.2,1.3,5.9-1.9c5.8-6.8,1.4-7.4,4.2-12.1c1.3-2.2,2.3-5.7,3.1-8.2c1.1-1,2.4-2.5,3.5-4.1c3.2-4.8,0.7-7.2-2.2-11.4
	c-1-1.2-1.7-1.9-2.5-3.2c-0.5-7.2,7.4-7.9,12.1-4.8c1.6,2.5,6.3,4.5,9,2.3c1.3-0.2,2.9-0.4,3.9,0.9c3.4,4.5,6.3,7.7,10.3,10
	c0.8,0.5,1.4,2.7,2.2,4.8C216,185.8,219.4,198.9,218.1,202.8z"/>
</svg>
