<?xml version="1.0" encoding="utf-8"?>
<!-- Generator: Adobe Illustrator 21.1.0, SVG Export Plug-In . SVG Version: 6.00 Build 0)  -->
<svg version="1.1" id="Layer_1" xmlns="http://www.w3.org/2000/svg" xmlns:xlink="http://www.w3.org/1999/xlink" x="0px" y="0px"
	 viewBox="0 0 260 260" style="enable-background:new 0 0 260 260;" xml:space="preserve">
<style type="text/css">
	.st0{fill:#595858;}
</style>
<path class="st0" d="M233.8,208.9c-11.1-2.4-22-15.8-33.4-30c-2.3-2.9-4.6-5.7-6.9-8.5c0,0,0,0,0,0c0-0.1,0.1-0.1,0.1-0.2
	c0.1-0.1,0.1-0.2,0.2-0.4c0.1-0.2,0.1-0.5,0.1-0.7c0-0.7-0.2-1.5-0.8-2.6c0,0,0,0,0,0c-0.8-1.5-2.3-3.6-4.9-7
	c-1.5-1.9-2.8-3.9-3-4.4c-0.3-0.7-0.3-0.9-0.1-1.7c0,0,0,0,0,0c0-0.2,0.1-0.3,0.1-0.6c0.3-1.2,0.3-1.5,0.1-2.2
	c-0.3-1.1-1.2-2.7-1.8-3.2c-0.3-0.2-0.5-0.5-0.5-0.6c0-0.3,0.8-0.2,1.3,0.2c0.9,0.6,2.4,1.5,3.3,1.8l0.8,0.3l-0.1-0.4
	c-0.4-1.3-1.5-3.1-3.8-6.2c-3-3.9-3.3-4.5-2.9-4.6c0.2-0.1,0.6,0.1,1.1,0.3c1.9,1,2.5,0,1.4-2.3c-0.7-1.3-1.5-2.3-4-5.1
	c-2.3-2.5-2.9-3.7-3.4-6.2c-0.3-2-0.8-3-2.1-4.8c-1.4-1.9-1.8-3.3-2.4-8.9c-0.8-6.8-1.8-10.7-4.3-15.8c-2.4-4.9-4.4-7.7-8.5-11.6
	c-5.8-5.7-7.9-8.1-9.7-11.4c-1.2-2.2-1.6-3.6-1.7-6.3c-0.1-1.3-0.3-2.9-0.4-3.6c-0.2-1-0.2-1.3,0.1-2.1c0.8-2.4,0-5.5-2.2-8.8
	c-0.6-0.8-1.1-1.8-1.5-2.7l0,0c-0.4-0.8-0.6-1.5-0.6-1.8c0,0,0,0,0,0c0,0,0-0.1,0-0.1c0,0,0,0,0,0c0,0,0,0,0,0c0,0,0,0,0,0
	c0,0,0.2,0.1,0.5,0.2c0.2,0.1,0.4,0.2,0.7,0.4c0.7,0.4,1.1,0.6,1.2,0.5c0,0,0-0.1-0.2-0.3c-0.1-0.1-0.1-0.2-0.1-0.2
	c0.1-0.1,0.4,0,1.2,0c0.8,0.1,1.1,0.1,1.1,0c0,0-0.1-0.1-0.3-0.2l-0.6-0.3l0.5-0.1l0.1,0c0.1,0,0.3-0.1,0.6-0.1
	c0.5-0.1,1.3-0.2,2.1-0.3c1.2-0.2,2.2-0.3,2.2-0.4c0,0,0,0,0,0c0,0,0,0,0,0c-0.1,0-0.4,0-0.7,0c-0.7,0-1,0-1.1-0.1
	c-0.1-0.2,1.3-0.6,4.2-1.3c0.1,0,0.1,0,0.1,0c0,0,0,0-0.1,0c-0.1,0-0.3,0-0.5,0c-0.3,0-0.6,0-0.7-0.1c-0.1,0-0.2-0.1-0.1-0.2
	c0.1-0.3,1.2-0.9,2.2-1.3c0,0,0.1,0,0.1,0c0.2,0,0.3-0.1,0.4-0.1c0,0,0,0,0.1,0c0.1,0,0.1,0,0.1-0.1c0.1-0.1,0.1-0.1-0.1-0.2
	c-0.5-0.3-0.1-0.8,1.4-1.8c0.5-0.4,0.8-0.6,0.9-0.7c0.1-0.1,0.1-0.1,0.1-0.1c0,0,0,0,0,0c0,0,0,0,0,0c0,0-0.1,0-0.2-0.1
	c-0.1,0-0.2,0-0.2-0.1c-0.4-0.2-0.1-0.7,1.3-2.7c1-1.3,1.6-2.4,2-3.2c0.3-0.7,0.4-1.3,0.3-1.9c0-0.2-0.1-0.5-0.2-0.7c0,0,0,0,0,0
	c0,0,0,0,0,0c-0.1-0.2-0.1-0.3-0.2-0.4c-0.1-0.1-0.3-0.5-0.4-0.9c0-0.2-0.1-0.4-0.1-0.6c-0.1-0.2-0.1-0.4-0.2-0.5c0,0,0-0.1-0.1-0.1
	c0,0,0,0,0,0c0,0,0,0,0,0c0,0,0,0,0,0c0,0,0,0,0,0c0,0,0,0,0,0c0,0,0,0,0,0c0,0,0,0.1-0.1,0.1c0,0,0,0.1,0,0.1c0,0,0,0.1,0,0.1
	c0,0.1-0.1,0.3-0.2,0.5c-0.5,1.4-2.5,5.2-2.8,5.3c0,0-0.1,0-0.1,0c0,0-0.1-0.1-0.1-0.2c0-0.1,0-0.3,0-0.6c0.1-0.4,0-0.7,0-1.1
	c-0.1-0.7-0.4-1.4-0.8-1.9l-0.6-0.7l0,0l0,0l0,0.4l0.1,0.5c0.1,1.1-0.3,2.7-1,3.6c-0.4,0.5-0.9,1-1.7,1.4c-0.6,0.3-1.2,0.6-2.1,1
	c-1.6,0.7-2,0.7-4.1,0.8c-0.5,0-1,0-1.3,0c-1,0-1.3-0.1-2.1-0.4c-0.4-0.2-1.1-0.6-1.8-1c0,0,0,0,0,0c-0.2-0.1-0.4-0.3-0.6-0.4
	c-1.8-1.4-2.8-1.9-5.6-2.5c-2-0.5-2.6-0.7-3.5-1.3c-1.8-1.3-3.2-1.6-6.2-1.6c-3,0-4.3,0.3-6.7,1.4c-3.1,1.5-5.2,4.2-5.4,6.9
	c-0.1,1.2-0.1,1.4,0.5,2.2c0.2,0.2,0.3,0.5,0.4,0.7c0,0,0,0,0,0c0,0.2,0,0.5,0.1,0.7c-0.1,0.3-0.4,0.8-0.7,1.2
	c-0.6,1.1-1.1,2-1.5,2.7c-0.4,0.8-0.6,1.5-0.8,2.2c-0.4,1.7,0,3.3,1.3,6c0.5,1,0.7,1.5,0.9,1.7c0.1,0.2,0.2,0.1,0.3,0
	c0.2-0.3,0.3-0.5,0.6-0.6c0,0,0.1,0,0.1,0c0.1,0,0.2,0,0.4,0c0,0,0.1,0,0.1,0c0.2,0,0.3,0.1,0.6,0.1c0,0,0,0,0,0
	c0.2,0,0.3,0.1,0.5,0.1c0.1,0,0.2,0.1,0.3,0.1c0,0,0.1,0,0.1,0c0.1,0,0.2,0.1,0.3,0.1c0,0,0,0,0.1,0c0.1,0,0.2,0.1,0.2,0.2
	c0.4,0.3,0.7,0.7,0.8,1.3c0.2,0.5,0.7,1.7,1.2,2.6c1.2,2.3,1.4,3.2,0.2,5.8c0,0,0,0,0,0c-0.2,0.4-0.3,0.8-0.5,1.2c0,0,0,0,0,0
	c0,0.1-0.1,0.1-0.1,0.2c-0.6,1.3-0.9,2.3-1.1,3.2c-0.1,0.7-0.3,1.9-0.4,2.6c-0.1,0.7-0.1,1.8-0.1,2.5c0.2,1.8-0.5,3.1-2.6,5.4
	c-0.6,0.7-1.1,1.2-1.4,1.8c-0.7,1.1-1.1,2-1.5,3.6c-0.7,2.9-0.9,4.4-0.9,7.5c0,2.2,0.2,4.4,0.7,7.2c0.4,2.2,1,4.8,1.9,8
	c0.6,2.1,1.1,3.6,1.6,4.9c0.9,2,2,3.3,4.2,5.5c1.5,1.5,2.1,2.1,2.4,2.6c0.2,0.3,0.3,0.6,0.4,0.9c0.3,0.9,0.5,1.3,1.7,2.5
	c0.8,0.8,1.8,1.9,2.2,2.6c0.9,1.3,1.6,2.1,2.7,3.1c-0.2,0.2-0.4,0.5-0.6,0.7c-0.6,0.8-1,1.3-1.4,2.3c-0.3,0.8-0.3,1.6-0.6,2.4
	c-0.4,0.8-0.9,1.6-1.4,2.3c-0.3,0.4-0.3,0.9-0.4,1.4c-5.8,0.8-11.8,1.7-17.8,2.7c-11.4,1.8-22.2,3.5-29.5,3.7c-1.2,0-2.1,1-2.1,2.2
	c0,1.5,0,2.9,0.1,4.4c-18.9-1.8-12.2-26.2-33.3-27.2c-6.3-0.3-18,2.9-18,13.5c0,8.7,8.7,6.9,15.8,9.4c6.8,2.3,22.2,17.9,38.1,23.3
	c1.6,6.6,4,12.6,7.1,18c-7.5,8.7-20.7,25.9-21.1,41h20c0,0-0.4-17.5,9.4-29.8c1.9,2,3.9,3.9,6.1,5.6c5.6,4.5,11.8,7.8,18,10.2
	l-2.6,14.1h17.1v-9.9c5.1,1,9.9,1.5,14.2,1.7c2.7,0.1,5.2,0.2,7.7,0.2c5,0,9.7-0.3,14.8-0.8v8.8h19.4l-4.6-10.8c3-0.5,6.3-1,9.9-1.5
	c4.1-0.6,8.6-1.3,13.6-2.1l6.9,14.4h19.2l-11.3-16.6c3.6-0.5,7.5-1.1,11.6-1.6c1-0.1,1.8-1,1.9-2C235.6,210,234.8,209.1,233.8,208.9
	z M130.6,139.8c0.2-0.4,0.5-0.7,0.8-1c0.4-0.5,1.2-0.8,1.7-1.1c0.6-0.3,1.1-0.4,1.7-0.5c0.5-0.1,1.1,0,1.5,0.1c0.7,0.1,1,0,1.6-0.1
	c0.2,0,0.2-0.2,0.2-0.4c0.2,0.1,0.4,0.2,0.7,0.3c0.3,0.2,0.6,0.3,0.9,0.4c0,0-0.1,0.1-0.1,0.1c-0.4,0.5-0.6,0.9-0.7,1.4
	C136.2,139.2,133.5,139.4,130.6,139.8z"/>
</svg>
