<?xml version="1.0" encoding="utf-8"?>
<!-- Generator: Adobe Illustrator 21.1.0, SVG Export Plug-In . SVG Version: 6.00 Build 0)  -->
<svg version="1.1" id="Layer_1" xmlns="http://www.w3.org/2000/svg" xmlns:xlink="http://www.w3.org/1999/xlink" x="0px" y="0px"
	 viewBox="0 0 260 260" style="enable-background:new 0 0 260 260;" xml:space="preserve">
<style type="text/css">
	.st0{fill:#595858;}
</style>
<path class="st0" d="M108.4,119.1c0,0-8.4-0.3-10.7-12.9c0,0,1.4-2.5,8.1-15.2c6.7-12.6,20.5-47.2,11.8-57c0,0-21.1,7-25.8,26.1
	c0,0,0-25.5-4.5-26.1c-5-0.6-17.1,16.8-16.6,26.9c0.6,10.1-0.6,30.3-5.9,32.6c-5.3,2.2-16.6,2.8-22.2,13.5
	c-5.6,10.7-15.6,13.5-11.6,31.4c3.9,18,15.6,14,20.1,14.6c0,0-4.8,32,26.4,42.1c0,0,1.7,10.9-0.8,13.8c-2.5,2.8-13.2,8.7-9.3,12.1
	c3.9,3.4,26.7,8.4,32.8,1.7c6.2-6.7,14-18.8,14-18.8s23.9,5.9,35.4,1.1c0,0-19.1,3.6-16.3,18c0,0,55.9,2,64-1.1
	c8.1-3.1,1.1-3.9,2.5-4.2c1.4-0.3,26.4-11.8,20.5-37.3c0,0,14-11.5,7.9-25.5c0,0-13.8-0.8-13.8,8.7c0,0-7.9-21.3-19.4-29.5
	C183.6,125.8,145.2,103.1,108.4,119.1z"/>
</svg>
